<svg width="545" height="440" viewBox="0 0 545 440" fill="none" xmlns="http://www.w3.org/2000/svg">
<rect width="544.681" height="440" rx="16" fill="white"/>
<path d="M139.578 163.829C139.578 159.834 142.816 156.595 146.812 156.595C150.807 156.595 154.046 159.834 154.046 163.829V347.233H139.578V163.829Z" fill="#001F3F" fill-opacity="0.3"/>
<path d="M114.895 218.723H476.172" stroke="#ECEEF2" stroke-width="4.08365" stroke-linecap="round" stroke-linejoin="round"/>
<path d="M114.037 283.404H475.313" stroke="#ECEEF2" stroke-width="4.08365" stroke-linecap="round" stroke-linejoin="round"/>
<path d="M114.037 347.235H475.313" stroke="#ECEEF2" stroke-width="4.08365" stroke-linecap="round" stroke-linejoin="round"/>
<path d="M189.785 284.682C189.785 280.687 193.023 277.448 197.019 277.448C201.014 277.448 204.253 280.687 204.253 284.682V347.235H189.785V284.682Z" fill="#001F3F" fill-opacity="0.3"/>
<path d="M240.002 208.087C240.002 204.092 243.241 200.853 247.236 200.853C251.232 200.853 254.471 204.092 254.471 208.087V347.236H240.002V208.087Z" fill="#001F3F" fill-opacity="0.3"/>
<path d="M290.209 208.087C290.209 204.092 293.448 200.853 297.443 200.853C301.439 200.853 304.677 204.092 304.677 208.087V347.236H290.209V208.087Z" fill="#001F3F" fill-opacity="0.3"/>
<path d="M340.427 258.299C340.427 254.304 343.666 251.065 347.661 251.065C351.656 251.065 354.895 254.304 354.895 258.299V345.533H340.427V258.299Z" fill="#001F3F" fill-opacity="0.3"/>
<path d="M390.634 284.682C390.634 280.687 393.873 277.448 397.868 277.448C401.863 277.448 405.102 280.687 405.102 284.682V347.235H390.634V284.682Z" fill="#001F3F" fill-opacity="0.3"/>
<path d="M440.852 208.087C440.852 204.092 444.09 200.853 448.086 200.853C452.081 200.853 455.32 204.092 455.32 208.087V347.236H440.852V208.087Z" fill="#001F3F" fill-opacity="0.3"/>
<path d="M139.578 197.873C139.578 193.878 142.816 190.639 146.812 190.639C150.807 190.639 154.046 193.878 154.046 197.873V347.235H139.578V197.873Z" fill="#001F3F"/>
<path d="M189.785 304.256C189.785 300.261 193.023 297.022 197.019 297.022C201.014 297.022 204.253 300.261 204.253 304.256V347.235H189.785V304.256Z" fill="#001F3F"/>
<path d="M240.002 252.341C240.002 248.346 243.241 245.107 247.236 245.107C251.232 245.107 254.471 248.346 254.471 252.341V347.235H240.002V252.341Z" fill="#001F3F"/>
<path d="M290.209 252.341C290.209 248.346 293.448 245.107 297.443 245.107C301.439 245.107 304.677 248.346 304.677 252.341V347.235H290.209V252.341Z" fill="#001F3F"/>
<path d="M340.427 296.595C340.427 292.6 343.666 289.361 347.661 289.361C351.656 289.361 354.895 292.6 354.895 296.595V347.234H340.427V296.595Z" fill="#001F3F"/>
<path d="M390.634 322.128C390.634 318.133 393.873 314.894 397.868 314.894C401.863 314.894 405.102 318.133 405.102 322.128V347.234H390.634V322.128Z" fill="#001F3F"/>
<path d="M440.852 246.384C440.852 242.388 444.09 239.15 448.086 239.15C452.081 239.15 455.32 242.388 455.32 246.384V347.235H440.852V246.384Z" fill="#001F3F"/>
<path d="M66.39 158.176C65.8907 158.176 65.4264 158.085 64.997 157.903C64.5677 157.716 64.1967 157.455 63.884 157.119C63.576 156.778 63.3497 156.375 63.205 155.908L64.402 155.565C64.556 156.032 64.8127 156.386 65.172 156.629C65.5314 156.872 65.935 156.991 66.383 156.986C66.7937 156.977 67.1484 156.883 67.447 156.706C67.7504 156.524 67.9837 156.277 68.147 155.964C68.315 155.651 68.399 155.29 68.399 154.879C68.399 154.254 68.2124 153.747 67.839 153.36C67.4657 152.968 66.9757 152.772 66.369 152.772C66.201 152.772 66.0237 152.795 65.837 152.842C65.655 152.889 65.4847 152.954 65.326 153.038L64.724 152.051L68.462 148.67L68.623 149.09H63.604V147.9H69.547V149.097L66.362 152.149L66.348 151.708C67.0154 151.661 67.5987 151.771 68.098 152.037C68.5974 152.303 68.9847 152.683 69.26 153.178C69.54 153.673 69.68 154.24 69.68 154.879C69.68 155.523 69.5354 156.092 69.246 156.587C68.9567 157.082 68.5647 157.471 68.07 157.756C67.5754 158.036 67.0154 158.176 66.39 158.176ZM74.902 158.19C74.2487 158.19 73.6654 158.043 73.152 157.749C72.6434 157.45 72.2397 157.047 71.941 156.538C71.647 156.025 71.5 155.441 71.5 154.788V151.092C71.5 150.439 71.647 149.855 71.941 149.342C72.2397 148.829 72.6434 148.425 73.152 148.131C73.6654 147.837 74.2487 147.69 74.902 147.69C75.5554 147.69 76.1387 147.837 76.652 148.131C77.1654 148.425 77.569 148.829 77.863 149.342C78.157 149.855 78.304 150.439 78.304 151.092V154.788C78.304 155.441 78.157 156.025 77.863 156.538C77.569 157.047 77.1654 157.45 76.652 157.749C76.1387 158.043 75.5554 158.19 74.902 158.19ZM74.902 156.993C75.2987 156.993 75.658 156.897 75.98 156.706C76.302 156.515 76.5587 156.258 76.75 155.936C76.9414 155.609 77.037 155.25 77.037 154.858V151.015C77.037 150.618 76.9414 150.259 76.75 149.937C76.5587 149.615 76.302 149.358 75.98 149.167C75.658 148.976 75.2987 148.88 74.902 148.88C74.51 148.88 74.1507 148.976 73.824 149.167C73.502 149.358 73.2454 149.615 73.054 149.937C72.8627 150.259 72.767 150.618 72.767 151.015V154.858C72.767 155.25 72.8627 155.609 73.054 155.936C73.2454 156.258 73.502 156.515 73.824 156.706C74.1507 156.897 74.51 156.993 74.902 156.993ZM83.6657 158.19C83.0124 158.19 82.429 158.043 81.9157 157.749C81.407 157.45 81.0034 157.047 80.7047 156.538C80.4107 156.025 80.2637 155.441 80.2637 154.788V151.092C80.2637 150.439 80.4107 149.855 80.7047 149.342C81.0034 148.829 81.407 148.425 81.9157 148.131C82.429 147.837 83.0124 147.69 83.6657 147.69C84.319 147.69 84.9024 147.837 85.4157 148.131C85.929 148.425 86.3327 148.829 86.6267 149.342C86.9207 149.855 87.0677 150.439 87.0677 151.092V154.788C87.0677 155.441 86.9207 156.025 86.6267 156.538C86.3327 157.047 85.929 157.45 85.4157 157.749C84.9024 158.043 84.319 158.19 83.6657 158.19ZM83.6657 156.993C84.0624 156.993 84.4217 156.897 84.7437 156.706C85.0657 156.515 85.3224 156.258 85.5137 155.936C85.705 155.609 85.8007 155.25 85.8007 154.858V151.015C85.8007 150.618 85.705 150.259 85.5137 149.937C85.3224 149.615 85.0657 149.358 84.7437 149.167C84.4217 148.976 84.0624 148.88 83.6657 148.88C83.2737 148.88 82.9144 148.976 82.5877 149.167C82.2657 149.358 82.009 149.615 81.8177 149.937C81.6264 150.259 81.5307 150.618 81.5307 151.015V154.858C81.5307 155.25 81.6264 155.609 81.8177 155.936C82.009 156.258 82.2657 156.515 82.5877 156.706C82.9144 156.897 83.2737 156.993 83.6657 156.993Z" fill="#A3A3AC"/>
<path d="M63.345 221.8L63.352 220.68L67.825 216.655C68.1984 216.319 68.448 216.001 68.574 215.703C68.7047 215.399 68.77 215.089 68.77 214.772C68.77 214.384 68.6814 214.034 68.504 213.722C68.3267 213.409 68.084 213.162 67.776 212.98C67.4727 212.798 67.1274 212.707 66.74 212.707C66.3387 212.707 65.9817 212.802 65.669 212.994C65.3564 213.18 65.109 213.43 64.927 213.743C64.7497 214.055 64.6634 214.396 64.668 214.765H63.394C63.394 214.13 63.541 213.57 63.835 213.085C64.129 212.595 64.528 212.212 65.032 211.937C65.5407 211.657 66.117 211.517 66.761 211.517C67.3864 211.517 67.9464 211.661 68.441 211.951C68.9357 212.235 69.3254 212.625 69.61 213.12C69.8994 213.61 70.044 214.165 70.044 214.786C70.044 215.224 69.988 215.605 69.876 215.927C69.7687 216.249 69.6007 216.547 69.372 216.823C69.1434 217.093 68.8564 217.383 68.511 217.691L64.794 221.03L64.633 220.61H70.044V221.8H63.345ZM75.1208 222.017C74.4674 222.017 73.8841 221.87 73.3708 221.576C72.8621 221.277 72.4584 220.873 72.1598 220.365C71.8658 219.851 71.7188 219.268 71.7188 218.615V214.919C71.7188 214.265 71.8658 213.682 72.1598 213.169C72.4584 212.655 72.8621 212.252 73.3708 211.958C73.8841 211.664 74.4674 211.517 75.1208 211.517C75.7741 211.517 76.3574 211.664 76.8708 211.958C77.3841 212.252 77.7878 212.655 78.0818 213.169C78.3758 213.682 78.5228 214.265 78.5228 214.919V218.615C78.5228 219.268 78.3758 219.851 78.0818 220.365C77.7878 220.873 77.3841 221.277 76.8708 221.576C76.3574 221.87 75.7741 222.017 75.1208 222.017ZM75.1208 220.82C75.5174 220.82 75.8768 220.724 76.1988 220.533C76.5208 220.341 76.7774 220.085 76.9688 219.763C77.1601 219.436 77.2558 219.077 77.2558 218.685V214.842C77.2558 214.445 77.1601 214.086 76.9688 213.764C76.7774 213.442 76.5208 213.185 76.1988 212.994C75.8768 212.802 75.5174 212.707 75.1208 212.707C74.7288 212.707 74.3694 212.802 74.0428 212.994C73.7208 213.185 73.4641 213.442 73.2728 213.764C73.0814 214.086 72.9858 214.445 72.9858 214.842V218.685C72.9858 219.077 73.0814 219.436 73.2728 219.763C73.4641 220.085 73.7208 220.341 74.0428 220.533C74.3694 220.724 74.7288 220.82 75.1208 220.82ZM83.8844 222.017C83.2311 222.017 82.6478 221.87 82.1344 221.576C81.6258 221.277 81.2221 220.873 80.9234 220.365C80.6294 219.851 80.4824 219.268 80.4824 218.615V214.919C80.4824 214.265 80.6294 213.682 80.9234 213.169C81.2221 212.655 81.6258 212.252 82.1344 211.958C82.6478 211.664 83.2311 211.517 83.8844 211.517C84.5378 211.517 85.1211 211.664 85.6344 211.958C86.1478 212.252 86.5514 212.655 86.8454 213.169C87.1394 213.682 87.2864 214.265 87.2864 214.919V218.615C87.2864 219.268 87.1394 219.851 86.8454 220.365C86.5514 220.873 86.1478 221.277 85.6344 221.576C85.1211 221.87 84.5378 222.017 83.8844 222.017ZM83.8844 220.82C84.2811 220.82 84.6404 220.724 84.9624 220.533C85.2844 220.341 85.5411 220.085 85.7324 219.763C85.9238 219.436 86.0194 219.077 86.0194 218.685V214.842C86.0194 214.445 85.9238 214.086 85.7324 213.764C85.5411 213.442 85.2844 213.185 84.9624 212.994C84.6404 212.802 84.2811 212.707 83.8844 212.707C83.4924 212.707 83.1331 212.802 82.8064 212.994C82.4844 213.185 82.2278 213.442 82.0364 213.764C81.8451 214.086 81.7494 214.445 81.7494 214.842V218.685C81.7494 219.077 81.8451 219.436 82.0364 219.763C82.2278 220.085 82.4844 220.341 82.8064 220.533C83.1331 220.724 83.4924 220.82 83.8844 220.82Z" fill="#A3A3AC"/>
<path d="M65.382 283.935V275.234L63.485 276.382V274.989L65.382 273.855H66.649V283.935H65.382ZM72.7145 284.145C72.0612 284.145 71.4779 283.998 70.9645 283.704C70.4559 283.406 70.0522 283.002 69.7535 282.493C69.4595 281.98 69.3125 281.397 69.3125 280.743V277.047C69.3125 276.394 69.4595 275.811 69.7535 275.297C70.0522 274.784 70.4559 274.38 70.9645 274.086C71.4779 273.792 72.0612 273.645 72.7145 273.645C73.3679 273.645 73.9512 273.792 74.4645 274.086C74.9779 274.38 75.3815 274.784 75.6755 275.297C75.9695 275.811 76.1165 276.394 76.1165 277.047V280.743C76.1165 281.397 75.9695 281.98 75.6755 282.493C75.3815 283.002 74.9779 283.406 74.4645 283.704C73.9512 283.998 73.3679 284.145 72.7145 284.145ZM72.7145 282.948C73.1112 282.948 73.4705 282.853 73.7925 282.661C74.1145 282.47 74.3712 282.213 74.5625 281.891C74.7539 281.565 74.8495 281.205 74.8495 280.813V276.97C74.8495 276.574 74.7539 276.214 74.5625 275.892C74.3712 275.57 74.1145 275.314 73.7925 275.122C73.4705 274.931 73.1112 274.835 72.7145 274.835C72.3225 274.835 71.9632 274.931 71.6365 275.122C71.3145 275.314 71.0579 275.57 70.8665 275.892C70.6752 276.214 70.5795 276.574 70.5795 276.97V280.813C70.5795 281.205 70.6752 281.565 70.8665 281.891C71.0579 282.213 71.3145 282.47 71.6365 282.661C71.9632 282.853 72.3225 282.948 72.7145 282.948ZM81.4782 284.145C80.8249 284.145 80.2415 283.998 79.7282 283.704C79.2195 283.406 78.8159 283.002 78.5172 282.493C78.2232 281.98 78.0762 281.397 78.0762 280.743V277.047C78.0762 276.394 78.2232 275.811 78.5172 275.297C78.8159 274.784 79.2195 274.38 79.7282 274.086C80.2415 273.792 80.8249 273.645 81.4782 273.645C82.1315 273.645 82.7149 273.792 83.2282 274.086C83.7415 274.38 84.1452 274.784 84.4392 275.297C84.7332 275.811 84.8802 276.394 84.8802 277.047V280.743C84.8802 281.397 84.7332 281.98 84.4392 282.493C84.1452 283.002 83.7415 283.406 83.2282 283.704C82.7149 283.998 82.1315 284.145 81.4782 284.145ZM81.4782 282.948C81.8749 282.948 82.2342 282.853 82.5562 282.661C82.8782 282.47 83.1349 282.213 83.3262 281.891C83.5175 281.565 83.6132 281.205 83.6132 280.813V276.97C83.6132 276.574 83.5175 276.214 83.3262 275.892C83.1349 275.57 82.8782 275.314 82.5562 275.122C82.2342 274.931 81.8749 274.835 81.4782 274.835C81.0862 274.835 80.7269 274.931 80.4002 275.122C80.0782 275.314 79.8215 275.57 79.6302 275.892C79.4389 276.214 79.3432 276.574 79.3432 276.97V280.813C79.3432 281.205 79.4389 281.565 79.6302 281.891C79.8215 282.213 80.0782 282.47 80.4002 282.661C80.7269 282.853 81.0862 282.948 81.4782 282.948Z" fill="#A3A3AC"/>
<path d="M72.1274 347.976C71.474 347.976 70.8907 347.829 70.3774 347.535C69.8687 347.236 69.465 346.833 69.1664 346.324C68.8724 345.811 68.7254 345.227 68.7254 344.574V340.878C68.7254 340.225 68.8724 339.641 69.1664 339.128C69.465 338.615 69.8687 338.211 70.3774 337.917C70.8907 337.623 71.474 337.476 72.1274 337.476C72.7807 337.476 73.364 337.623 73.8774 337.917C74.3907 338.211 74.7944 338.615 75.0884 339.128C75.3824 339.641 75.5294 340.225 75.5294 340.878V344.574C75.5294 345.227 75.3824 345.811 75.0884 346.324C74.7944 346.833 74.3907 347.236 73.8774 347.535C73.364 347.829 72.7807 347.976 72.1274 347.976ZM72.1274 346.779C72.524 346.779 72.8834 346.683 73.2054 346.492C73.5274 346.301 73.784 346.044 73.9754 345.722C74.1667 345.395 74.2624 345.036 74.2624 344.644V340.801C74.2624 340.404 74.1667 340.045 73.9754 339.723C73.784 339.401 73.5274 339.144 73.2054 338.953C72.8834 338.762 72.524 338.666 72.1274 338.666C71.7354 338.666 71.376 338.762 71.0494 338.953C70.7274 339.144 70.4707 339.401 70.2794 339.723C70.088 340.045 69.9924 340.404 69.9924 340.801V344.644C69.9924 345.036 70.088 345.395 70.2794 345.722C70.4707 346.044 70.7274 346.301 71.0494 346.492C71.376 346.683 71.7354 346.779 72.1274 346.779Z" fill="#9FA2AC"/>
<path d="M140.558 374.362V364.282H141.503L145.465 372.759L149.406 364.282H150.365V374.355H149.385V366.578L145.794 374.362H145.129L141.545 366.578V374.362H140.558Z" fill="#A3A7AF"/>
<path d="M194.298 374.362V365.269H190.777V364.282H198.848V365.269H195.327V374.362H194.298Z" fill="#A3A7AF"/>
<path d="M240.887 374.362L238.577 366.795L239.606 366.802L241.398 372.675L243.197 366.802H244.135L245.934 372.675L247.74 366.802H248.762L246.452 374.362H245.556L243.666 368.342L241.783 374.362H240.887Z" fill="#A3A7AF"/>
<path d="M295.576 374.362V365.269H292.055V364.282H300.126V365.269H296.605V374.362H295.576Z" fill="#A3A7AF"/>
<path d="M343.96 374.362V364.282H349.749V365.311H344.989V368.811H348.909V369.833H344.989V374.362H343.96Z" fill="#A3A7AF"/>
<path d="M396.82 374.572C396.115 374.572 395.48 374.455 394.916 374.222C394.356 373.984 393.891 373.648 393.523 373.214C393.159 372.78 392.921 372.264 392.809 371.667L393.859 371.492C394.027 372.145 394.381 372.659 394.923 373.032C395.464 373.401 396.11 373.585 396.862 373.585C397.356 373.585 397.8 373.508 398.192 373.354C398.584 373.195 398.892 372.971 399.116 372.682C399.34 372.393 399.452 372.05 399.452 371.653C399.452 371.392 399.405 371.17 399.312 370.988C399.218 370.801 399.095 370.647 398.941 370.526C398.787 370.405 398.619 370.304 398.437 370.225C398.255 370.141 398.077 370.073 397.905 370.022L395.35 369.259C395.042 369.17 394.757 369.058 394.496 368.923C394.234 368.783 394.006 368.617 393.81 368.426C393.618 368.23 393.469 368.001 393.362 367.74C393.254 367.479 393.201 367.18 393.201 366.844C393.201 366.275 393.35 365.782 393.649 365.367C393.947 364.952 394.356 364.632 394.874 364.408C395.392 364.184 395.982 364.074 396.645 364.079C397.317 364.079 397.916 364.198 398.444 364.436C398.976 364.674 399.414 365.015 399.76 365.458C400.105 365.897 400.334 366.417 400.446 367.019L399.368 367.215C399.298 366.776 399.137 366.396 398.885 366.074C398.633 365.752 398.311 365.505 397.919 365.332C397.531 365.155 397.104 365.064 396.638 365.059C396.185 365.059 395.781 365.136 395.427 365.29C395.077 365.439 394.799 365.645 394.594 365.906C394.388 366.167 394.286 366.466 394.286 366.802C394.286 367.143 394.379 367.416 394.566 367.621C394.757 367.826 394.99 367.987 395.266 368.104C395.546 368.221 395.816 368.316 396.078 368.391L398.052 368.972C398.257 369.028 398.497 369.11 398.773 369.217C399.053 369.32 399.323 369.469 399.585 369.665C399.851 369.856 400.07 370.108 400.243 370.421C400.415 370.734 400.502 371.13 400.502 371.611C400.502 372.078 400.408 372.495 400.222 372.864C400.04 373.233 399.781 373.543 399.445 373.795C399.113 374.047 398.724 374.238 398.276 374.369C397.832 374.504 397.347 374.572 396.82 374.572Z" fill="#A3A7AF"/>
<path d="M447.032 374.572C446.327 374.572 445.693 374.455 445.128 374.222C444.568 373.984 444.104 373.648 443.735 373.214C443.371 372.78 443.133 372.264 443.021 371.667L444.071 371.492C444.239 372.145 444.594 372.659 445.135 373.032C445.676 373.401 446.323 373.585 447.074 373.585C447.569 373.585 448.012 373.508 448.404 373.354C448.796 373.195 449.104 372.971 449.328 372.682C449.552 372.393 449.664 372.05 449.664 371.653C449.664 371.392 449.617 371.17 449.524 370.988C449.431 370.801 449.307 370.647 449.153 370.526C448.999 370.405 448.831 370.304 448.649 370.225C448.467 370.141 448.29 370.073 448.117 370.022L445.562 369.259C445.254 369.17 444.969 369.058 444.708 368.923C444.447 368.783 444.218 368.617 444.022 368.426C443.831 368.23 443.681 368.001 443.574 367.74C443.467 367.479 443.413 367.18 443.413 366.844C443.413 366.275 443.562 365.782 443.861 365.367C444.16 364.952 444.568 364.632 445.086 364.408C445.604 364.184 446.194 364.074 446.857 364.079C447.529 364.079 448.129 364.198 448.656 364.436C449.188 364.674 449.627 365.015 449.972 365.458C450.317 365.897 450.546 366.417 450.658 367.019L449.58 367.215C449.51 366.776 449.349 366.396 449.097 366.074C448.845 365.752 448.523 365.505 448.131 365.332C447.744 365.155 447.317 365.064 446.85 365.059C446.397 365.059 445.994 365.136 445.639 365.29C445.289 365.439 445.011 365.645 444.806 365.906C444.601 366.167 444.498 366.466 444.498 366.802C444.498 367.143 444.591 367.416 444.778 367.621C444.969 367.826 445.203 367.987 445.478 368.104C445.758 368.221 446.029 368.316 446.29 368.391L448.264 368.972C448.469 369.028 448.71 369.11 448.985 369.217C449.265 369.32 449.536 369.469 449.797 369.665C450.063 369.856 450.282 370.108 450.455 370.421C450.628 370.734 450.714 371.13 450.714 371.611C450.714 372.078 450.621 372.495 450.434 372.864C450.252 373.233 449.993 373.543 449.657 373.795C449.326 374.047 448.936 374.238 448.488 374.369C448.045 374.504 447.559 374.572 447.032 374.572Z" fill="#A3A7AF"/>
<path d="M114.037 155.745H475.313" stroke="#EEF0F4" stroke-width="4.08365" stroke-linecap="round" stroke-linejoin="round"/>
<path d="M74.0218 74V56.72H79.4338C79.5938 56.72 79.8898 56.724 80.3218 56.732C80.7618 56.74 81.1818 56.772 81.5818 56.828C82.9338 56.996 84.0698 57.48 84.9898 58.28C85.9178 59.08 86.6178 60.096 87.0898 61.328C87.5618 62.552 87.7978 63.896 87.7978 65.36C87.7978 66.832 87.5618 68.184 87.0898 69.416C86.6178 70.64 85.9178 71.652 84.9898 72.452C84.0698 73.244 82.9338 73.724 81.5818 73.892C81.1818 73.948 80.7618 73.98 80.3218 73.988C79.8898 73.996 79.5938 74 79.4338 74H74.0218ZM76.5898 71.612H79.4338C79.7058 71.612 80.0298 71.604 80.4058 71.588C80.7818 71.572 81.1138 71.54 81.4018 71.492C82.2818 71.324 82.9938 70.944 83.5378 70.352C84.0898 69.752 84.4938 69.016 84.7498 68.144C85.0058 67.272 85.1338 66.344 85.1338 65.36C85.1338 64.344 85.0018 63.404 84.7378 62.54C84.4738 61.668 84.0658 60.94 83.5138 60.356C82.9698 59.764 82.2658 59.388 81.4018 59.228C81.1138 59.172 80.7778 59.14 80.3938 59.132C80.0178 59.116 79.6978 59.108 79.4338 59.108H76.5898V71.612ZM94.2521 74.36C93.2921 74.36 92.4881 74.184 91.8401 73.832C91.1921 73.472 90.7001 73 90.3641 72.416C90.0361 71.824 89.8721 71.176 89.8721 70.472C89.8721 69.816 89.9881 69.24 90.2201 68.744C90.4521 68.248 90.7961 67.828 91.2521 67.484C91.7081 67.132 92.2681 66.848 92.9321 66.632C93.5081 66.464 94.1601 66.316 94.8881 66.188C95.6161 66.06 96.3801 65.94 97.1801 65.828C97.9881 65.716 98.7881 65.604 99.5801 65.492L98.6681 65.996C98.6841 64.98 98.4681 64.228 98.0201 63.74C97.5801 63.244 96.8201 62.996 95.7401 62.996C95.0601 62.996 94.4361 63.156 93.8681 63.476C93.3001 63.788 92.9041 64.308 92.6801 65.036L90.3401 64.316C90.6601 63.204 91.2681 62.32 92.1641 61.664C93.0681 61.008 94.2681 60.68 95.7641 60.68C96.9241 60.68 97.9321 60.88 98.7881 61.28C99.6521 61.672 100.284 62.296 100.684 63.152C100.892 63.576 101.02 64.024 101.068 64.496C101.116 64.968 101.14 65.476 101.14 66.02V74H98.9201V71.036L99.3521 71.42C98.8161 72.412 98.1321 73.152 97.3001 73.64C96.4761 74.12 95.4601 74.36 94.2521 74.36ZM94.6961 72.308C95.4081 72.308 96.0201 72.184 96.5321 71.936C97.0441 71.68 97.4561 71.356 97.7681 70.964C98.0801 70.572 98.2841 70.164 98.3801 69.74C98.5161 69.356 98.5921 68.924 98.6081 68.444C98.6321 67.964 98.6441 67.58 98.6441 67.292L99.4601 67.592C98.6681 67.712 97.9481 67.82 97.3001 67.916C96.6521 68.012 96.0641 68.108 95.5361 68.204C95.0161 68.292 94.5521 68.4 94.1441 68.528C93.8001 68.648 93.4921 68.792 93.2201 68.96C92.9561 69.128 92.7441 69.332 92.5841 69.572C92.4321 69.812 92.3561 70.104 92.3561 70.448C92.3561 70.784 92.4401 71.096 92.6081 71.384C92.7761 71.664 93.0321 71.888 93.3761 72.056C93.7201 72.224 94.1601 72.308 94.6961 72.308ZM111.672 74C110.856 74.16 110.056 74.228 109.272 74.204C108.488 74.18 107.788 74.028 107.172 73.748C106.556 73.468 106.092 73.028 105.78 72.428C105.5 71.892 105.348 71.348 105.324 70.796C105.308 70.236 105.3 69.604 105.3 68.9V57.44H107.82V68.78C107.82 69.3 107.824 69.752 107.832 70.136C107.848 70.52 107.932 70.844 108.084 71.108C108.372 71.604 108.828 71.888 109.452 71.96C110.084 72.024 110.824 71.996 111.672 71.876V74ZM102.816 63.056V61.04H111.672V63.056H102.816ZM118.065 74.36C117.105 74.36 116.301 74.184 115.653 73.832C115.005 73.472 114.513 73 114.177 72.416C113.849 71.824 113.685 71.176 113.685 70.472C113.685 69.816 113.801 69.24 114.033 68.744C114.265 68.248 114.609 67.828 115.065 67.484C115.521 67.132 116.081 66.848 116.745 66.632C117.321 66.464 117.973 66.316 118.701 66.188C119.429 66.06 120.193 65.94 120.993 65.828C121.801 65.716 122.601 65.604 123.393 65.492L122.481 65.996C122.497 64.98 122.281 64.228 121.833 63.74C121.393 63.244 120.633 62.996 119.553 62.996C118.873 62.996 118.249 63.156 117.681 63.476C117.113 63.788 116.717 64.308 116.493 65.036L114.153 64.316C114.473 63.204 115.081 62.32 115.977 61.664C116.881 61.008 118.081 60.68 119.577 60.68C120.737 60.68 121.745 60.88 122.601 61.28C123.465 61.672 124.097 62.296 124.497 63.152C124.705 63.576 124.833 64.024 124.881 64.496C124.929 64.968 124.953 65.476 124.953 66.02V74H122.733V71.036L123.165 71.42C122.629 72.412 121.945 73.152 121.113 73.64C120.289 74.12 119.273 74.36 118.065 74.36ZM118.509 72.308C119.221 72.308 119.833 72.184 120.345 71.936C120.857 71.68 121.269 71.356 121.581 70.964C121.893 70.572 122.097 70.164 122.193 69.74C122.329 69.356 122.405 68.924 122.421 68.444C122.445 67.964 122.457 67.58 122.457 67.292L123.273 67.592C122.481 67.712 121.761 67.82 121.113 67.916C120.465 68.012 119.877 68.108 119.349 68.204C118.829 68.292 118.365 68.4 117.957 68.528C117.613 68.648 117.305 68.792 117.033 68.96C116.769 69.128 116.557 69.332 116.397 69.572C116.245 69.812 116.169 70.104 116.169 70.448C116.169 70.784 116.253 71.096 116.421 71.384C116.589 71.664 116.845 71.888 117.189 72.056C117.533 72.224 117.973 72.308 118.509 72.308ZM134.153 74.36C132.913 74.36 131.873 74.06 131.033 73.46C130.193 72.852 129.557 72.032 129.125 71C128.693 69.968 128.477 68.804 128.477 67.508C128.477 66.212 128.689 65.048 129.113 64.016C129.545 62.984 130.177 62.172 131.009 61.58C131.849 60.98 132.881 60.68 134.105 60.68C135.321 60.68 136.369 60.98 137.249 61.58C138.137 62.172 138.821 62.984 139.301 64.016C139.781 65.04 140.021 66.204 140.021 67.508C140.021 68.804 139.781 69.972 139.301 71.012C138.829 72.044 138.153 72.86 137.273 73.46C136.401 74.06 135.361 74.36 134.153 74.36ZM128.057 74V56.72H130.577V64.676H130.289V74H128.057ZM133.805 72.092C134.605 72.092 135.265 71.888 135.785 71.48C136.313 71.072 136.705 70.524 136.961 69.836C137.225 69.14 137.357 68.364 137.357 67.508C137.357 66.66 137.225 65.892 136.961 65.204C136.705 64.516 136.309 63.968 135.773 63.56C135.237 63.152 134.553 62.948 133.721 62.948C132.937 62.948 132.289 63.14 131.777 63.524C131.273 63.908 130.897 64.444 130.649 65.132C130.409 65.82 130.289 66.612 130.289 67.508C130.289 68.404 130.409 69.196 130.649 69.884C130.889 70.572 131.269 71.112 131.789 71.504C132.309 71.896 132.981 72.092 133.805 72.092ZM146.33 74.36C145.37 74.36 144.566 74.184 143.918 73.832C143.27 73.472 142.778 73 142.442 72.416C142.114 71.824 141.95 71.176 141.95 70.472C141.95 69.816 142.066 69.24 142.298 68.744C142.53 68.248 142.874 67.828 143.33 67.484C143.786 67.132 144.346 66.848 145.01 66.632C145.586 66.464 146.238 66.316 146.966 66.188C147.694 66.06 148.458 65.94 149.258 65.828C150.066 65.716 150.866 65.604 151.658 65.492L150.746 65.996C150.762 64.98 150.546 64.228 150.098 63.74C149.658 63.244 148.898 62.996 147.818 62.996C147.138 62.996 146.514 63.156 145.946 63.476C145.378 63.788 144.982 64.308 144.758 65.036L142.418 64.316C142.738 63.204 143.346 62.32 144.242 61.664C145.146 61.008 146.346 60.68 147.842 60.68C149.002 60.68 150.01 60.88 150.866 61.28C151.73 61.672 152.362 62.296 152.762 63.152C152.97 63.576 153.098 64.024 153.146 64.496C153.194 64.968 153.218 65.476 153.218 66.02V74H150.998V71.036L151.43 71.42C150.894 72.412 150.21 73.152 149.378 73.64C148.554 74.12 147.538 74.36 146.33 74.36ZM146.774 72.308C147.486 72.308 148.098 72.184 148.61 71.936C149.122 71.68 149.534 71.356 149.846 70.964C150.158 70.572 150.362 70.164 150.458 69.74C150.594 69.356 150.67 68.924 150.686 68.444C150.71 67.964 150.722 67.58 150.722 67.292L151.538 67.592C150.746 67.712 150.026 67.82 149.378 67.916C148.73 68.012 148.142 68.108 147.614 68.204C147.094 68.292 146.63 68.4 146.222 68.528C145.878 68.648 145.57 68.792 145.298 68.96C145.034 69.128 144.822 69.332 144.662 69.572C144.51 69.812 144.434 70.104 144.434 70.448C144.434 70.784 144.518 71.096 144.686 71.384C144.854 71.664 145.11 71.888 145.454 72.056C145.798 72.224 146.238 72.308 146.774 72.308ZM161.29 74.348C159.714 74.348 158.43 74 157.438 73.304C156.446 72.608 155.838 71.628 155.614 70.364L158.182 69.968C158.342 70.64 158.71 71.172 159.286 71.564C159.87 71.948 160.594 72.14 161.458 72.14C162.242 72.14 162.854 71.98 163.294 71.66C163.742 71.34 163.966 70.9 163.966 70.34C163.966 70.012 163.886 69.748 163.726 69.548C163.574 69.34 163.25 69.144 162.754 68.96C162.258 68.776 161.502 68.548 160.486 68.276C159.374 67.988 158.49 67.68 157.834 67.352C157.186 67.016 156.722 66.628 156.442 66.188C156.17 65.74 156.034 65.2 156.034 64.568C156.034 63.784 156.242 63.1 156.658 62.516C157.074 61.932 157.658 61.48 158.41 61.16C159.17 60.84 160.058 60.68 161.074 60.68C162.066 60.68 162.95 60.836 163.726 61.148C164.502 61.46 165.13 61.904 165.61 62.48C166.09 63.048 166.378 63.716 166.474 64.484L163.906 64.952C163.818 64.328 163.526 63.836 163.03 63.476C162.534 63.116 161.89 62.92 161.098 62.888C160.338 62.856 159.722 62.984 159.25 63.272C158.778 63.552 158.542 63.94 158.542 64.436C158.542 64.724 158.63 64.968 158.806 65.168C158.99 65.368 159.342 65.56 159.862 65.744C160.382 65.928 161.15 66.148 162.166 66.404C163.254 66.684 164.118 66.996 164.758 67.34C165.398 67.676 165.854 68.08 166.126 68.552C166.406 69.016 166.546 69.58 166.546 70.244C166.546 71.524 166.078 72.528 165.142 73.256C164.214 73.984 162.93 74.348 161.29 74.348ZM174.949 74.36C173.661 74.36 172.529 74.08 171.553 73.52C170.585 72.952 169.829 72.164 169.285 71.156C168.749 70.14 168.481 68.964 168.481 67.628C168.481 66.212 168.745 64.984 169.273 63.944C169.809 62.904 170.553 62.1 171.505 61.532C172.457 60.964 173.565 60.68 174.829 60.68C176.149 60.68 177.273 60.988 178.201 61.604C179.129 62.212 179.821 63.08 180.277 64.208C180.741 65.336 180.925 66.676 180.829 68.228H178.321V67.316C178.305 65.812 178.017 64.7 177.457 63.98C176.905 63.26 176.061 62.9 174.925 62.9C173.669 62.9 172.725 63.296 172.093 64.088C171.461 64.88 171.145 66.024 171.145 67.52C171.145 68.944 171.461 70.048 172.093 70.832C172.725 71.608 173.637 71.996 174.829 71.996C175.613 71.996 176.289 71.82 176.857 71.468C177.433 71.108 177.881 70.596 178.201 69.932L180.661 70.712C180.157 71.872 179.393 72.772 178.369 73.412C177.345 74.044 176.205 74.36 174.949 74.36ZM170.329 68.228V66.272H179.581V68.228H170.329ZM187.126 74L192.742 56.72H196.354L201.97 74H199.366L194.194 58.232H194.842L189.73 74H187.126ZM190.042 70.1V67.748H199.066V70.1H190.042ZM209.667 74.36C208.339 74.36 207.211 74.064 206.283 73.472C205.355 72.88 204.643 72.068 204.147 71.036C203.659 70.004 203.411 68.832 203.403 67.52C203.411 66.184 203.667 65.004 204.171 63.98C204.675 62.948 205.395 62.14 206.331 61.556C207.267 60.972 208.391 60.68 209.703 60.68C211.119 60.68 212.327 61.032 213.327 61.736C214.335 62.44 214.999 63.404 215.319 64.628L212.823 65.348C212.575 64.62 212.167 64.056 211.599 63.656C211.039 63.248 210.395 63.044 209.667 63.044C208.843 63.044 208.167 63.24 207.639 63.632C207.111 64.016 206.719 64.544 206.463 65.216C206.207 65.888 206.075 66.656 206.067 67.52C206.075 68.856 206.379 69.936 206.979 70.76C207.587 71.584 208.483 71.996 209.667 71.996C210.475 71.996 211.127 71.812 211.623 71.444C212.127 71.068 212.511 70.532 212.775 69.836L215.319 70.436C214.895 71.7 214.195 72.672 213.219 73.352C212.243 74.024 211.059 74.36 209.667 74.36ZM225.18 74C224.364 74.16 223.564 74.228 222.78 74.204C221.996 74.18 221.296 74.028 220.68 73.748C220.064 73.468 219.6 73.028 219.288 72.428C219.008 71.892 218.856 71.348 218.832 70.796C218.816 70.236 218.808 69.604 218.808 68.9V57.44H221.328V68.78C221.328 69.3 221.332 69.752 221.34 70.136C221.356 70.52 221.44 70.844 221.592 71.108C221.88 71.604 222.336 71.888 222.96 71.96C223.592 72.024 224.332 71.996 225.18 71.876V74ZM216.324 63.056V61.04H225.18V63.056H216.324ZM228.152 58.916V56.48H230.66V58.916H228.152ZM228.152 74V61.04H230.66V74H228.152ZM237.768 74L233.064 61.04H235.596L239.04 70.856L242.484 61.04H245.016L240.312 74H237.768ZM247.418 58.916V56.48H249.926V58.916H247.418ZM247.418 74V61.04H249.926V74H247.418ZM260.946 74C260.13 74.16 259.33 74.228 258.546 74.204C257.762 74.18 257.062 74.028 256.446 73.748C255.83 73.468 255.366 73.028 255.054 72.428C254.774 71.892 254.622 71.348 254.598 70.796C254.582 70.236 254.574 69.604 254.574 68.9V57.44H257.094V68.78C257.094 69.3 257.098 69.752 257.106 70.136C257.122 70.52 257.206 70.844 257.358 71.108C257.646 71.604 258.102 71.888 258.726 71.96C259.358 72.024 260.098 71.996 260.946 71.876V74ZM252.09 63.056V61.04H260.946V63.056H252.09ZM265.078 79.76L267.586 72.932L267.622 74.948L261.97 61.04H264.586L268.81 71.78H268.042L272.074 61.04H274.618L267.466 79.76H265.078Z" fill="#2B324D"/>
<path d="M410.082 71V60.608H406.058V59.48H415.282V60.608H411.258V71H410.082ZM422.805 71V66.592C422.805 66.112 422.759 65.672 422.669 65.272C422.578 64.8667 422.431 64.5147 422.229 64.216C422.031 63.912 421.773 63.6773 421.453 63.512C421.138 63.3467 420.754 63.264 420.301 63.264C419.885 63.264 419.517 63.336 419.197 63.48C418.882 63.624 418.615 63.832 418.397 64.104C418.183 64.3707 418.021 64.696 417.909 65.08C417.797 65.464 417.741 65.9013 417.741 66.392L416.909 66.208C416.909 65.3227 417.063 64.5787 417.373 63.976C417.682 63.3733 418.109 62.9173 418.653 62.608C419.197 62.2987 419.821 62.144 420.525 62.144C421.042 62.144 421.493 62.224 421.877 62.384C422.266 62.544 422.594 62.76 422.861 63.032C423.133 63.304 423.351 63.616 423.517 63.968C423.682 64.3147 423.802 64.6853 423.877 65.08C423.951 65.4693 423.989 65.8587 423.989 66.248V71H422.805ZM416.557 71V59.48H417.621V65.984H417.741V71H416.557ZM426.225 60.72V59.4H427.401V60.72H426.225ZM426.225 71V62.36H427.401V71H426.225ZM433.023 71.232C432.01 71.232 431.175 71.0133 430.519 70.576C429.868 70.1387 429.468 69.5307 429.319 68.752L430.519 68.552C430.647 69.0427 430.938 69.4347 431.391 69.728C431.85 70.016 432.415 70.16 433.087 70.16C433.743 70.16 434.26 70.024 434.639 69.752C435.018 69.4747 435.207 69.0987 435.207 68.624C435.207 68.3573 435.146 68.1413 435.023 67.976C434.906 67.8053 434.663 67.648 434.295 67.504C433.927 67.36 433.378 67.1893 432.647 66.992C431.863 66.7787 431.25 66.5653 430.807 66.352C430.364 66.1387 430.05 65.8933 429.863 65.616C429.676 65.3333 429.583 64.9893 429.583 64.584C429.583 64.0933 429.722 63.664 429.999 63.296C430.276 62.9227 430.66 62.6347 431.151 62.432C431.642 62.224 432.212 62.12 432.863 62.12C433.514 62.12 434.095 62.2267 434.607 62.44C435.124 62.648 435.54 62.9413 435.855 63.32C436.17 63.6987 436.356 64.1387 436.415 64.64L435.215 64.856C435.135 64.3493 434.882 63.9493 434.455 63.656C434.034 63.3573 433.498 63.2027 432.847 63.192C432.234 63.176 431.735 63.2933 431.351 63.544C430.967 63.7893 430.775 64.1173 430.775 64.528C430.775 64.7573 430.844 64.9547 430.983 65.12C431.122 65.28 431.372 65.432 431.735 65.576C432.103 65.72 432.626 65.8773 433.303 66.048C434.098 66.2507 434.722 66.464 435.175 66.688C435.628 66.912 435.951 67.176 436.143 67.48C436.335 67.784 436.431 68.16 436.431 68.608C436.431 69.424 436.127 70.0667 435.519 70.536C434.916 71 434.084 71.232 433.023 71.232ZM443.88 71L440.552 59.48H441.776L444.472 68.992L447.152 59.488L448.384 59.48L451.08 68.992L453.76 59.48H454.992L451.672 71H450.488L447.768 61.552L445.064 71H443.88ZM459.08 71.24C458.237 71.24 457.507 71.0533 456.888 70.68C456.275 70.3067 455.797 69.7813 455.456 69.104C455.115 68.4267 454.944 67.632 454.944 66.72C454.944 65.776 455.112 64.96 455.448 64.272C455.784 63.584 456.256 63.0533 456.864 62.68C457.477 62.3067 458.2 62.12 459.032 62.12C459.885 62.12 460.613 62.3173 461.216 62.712C461.819 63.1013 462.275 63.6613 462.584 64.392C462.893 65.1227 463.035 65.9947 463.008 67.008H461.808V66.592C461.787 65.472 461.544 64.6267 461.08 64.056C460.621 63.4853 459.949 63.2 459.064 63.2C458.136 63.2 457.424 63.5013 456.928 64.104C456.437 64.7067 456.192 65.5653 456.192 66.68C456.192 67.768 456.437 68.6133 456.928 69.216C457.424 69.8133 458.125 70.112 459.032 70.112C459.651 70.112 460.189 69.9707 460.648 69.688C461.112 69.4 461.477 68.9867 461.744 68.448L462.84 68.872C462.499 69.624 461.995 70.208 461.328 70.624C460.667 71.0347 459.917 71.24 459.08 71.24ZM455.776 67.008V66.024H462.376V67.008H455.776ZM468.439 71.24C467.597 71.24 466.866 71.0533 466.247 70.68C465.634 70.3067 465.157 69.7813 464.815 69.104C464.474 68.4267 464.303 67.632 464.303 66.72C464.303 65.776 464.471 64.96 464.807 64.272C465.143 63.584 465.615 63.0533 466.223 62.68C466.837 62.3067 467.559 62.12 468.391 62.12C469.245 62.12 469.973 62.3173 470.575 62.712C471.178 63.1013 471.634 63.6613 471.943 64.392C472.253 65.1227 472.394 65.9947 472.367 67.008H471.167V66.592C471.146 65.472 470.903 64.6267 470.439 64.056C469.981 63.4853 469.309 63.2 468.423 63.2C467.495 63.2 466.783 63.5013 466.287 64.104C465.797 64.7067 465.551 65.5653 465.551 66.68C465.551 67.768 465.797 68.6133 466.287 69.216C466.783 69.8133 467.485 70.112 468.391 70.112C469.01 70.112 469.549 69.9707 470.007 69.688C470.471 69.4 470.837 68.9867 471.103 68.448L472.199 68.872C471.858 69.624 471.354 70.208 470.687 70.624C470.026 71.0347 469.277 71.24 468.439 71.24ZM465.135 67.008V66.024H471.735V67.008H465.135ZM474.135 71L474.143 59.48H475.327V66.52L479.183 62.36H480.751L476.703 66.68L481.279 71H479.567L475.327 66.84V71H474.135Z" fill="#9197A0"/>
<path d="M500.847 70.7351C501.005 70.8838 501.251 70.8838 501.408 70.7351L510.107 62.517C510.375 62.2633 510.196 61.8118 509.826 61.8118H492.429C492.06 61.8118 491.88 62.2633 492.149 62.517L500.847 70.7351Z" fill="#B8BDC9"/>
</svg>
