<svg width="48" height="48" viewBox="0 0 48 48" fill="none" xmlns="http://www.w3.org/2000/svg">
<circle opacity="0.1" cx="24" cy="24" r="24" fill="#001F3F"/>
<path d="M22 34H26M17 21C17 19.1435 17.7375 17.363 19.0503 16.0503C20.363 14.7375 22.1435 14 24 14C25.8565 14 27.637 14.7375 28.9497 16.0503C30.2625 17.363 31 19.1435 31 21C31.0007 22.1271 30.7281 23.2375 30.2056 24.2362C29.6831 25.2348 28.9263 26.0919 28 26.734L27.458 29.3C27.3862 29.773 27.1473 30.2046 26.7846 30.5165C26.4219 30.8284 25.9594 30.9999 25.481 31H22.519C22.0406 30.9999 21.5781 30.8284 21.2154 30.5165C20.8527 30.2046 20.6138 29.773 20.542 29.3L20 26.745C19.0734 26.1006 18.3166 25.2415 17.7942 24.2411C17.2717 23.2407 16.9993 22.1286 17 21Z" stroke="#001F3F" stroke-width="1.5" stroke-linecap="round" stroke-linejoin="round"/>
<path d="M20 27H28" stroke="#001F3F" stroke-width="1.5" stroke-linecap="round" stroke-linejoin="round"/>
</svg>
